<?xml version="1.0" standalone="no"?>
<!DOCTYPE svg PUBLIC "-//W3C//DTD SVG 20010904//EN"
 "http://www.w3.org/TR/2001/REC-SVG-20010904/DTD/svg10.dtd">
<svg version="1.0" xmlns="http://www.w3.org/2000/svg"
 width="1024.000000pt" height="1024.000000pt" viewBox="0 0 1024.000000 1024.000000"
 preserveAspectRatio="xMidYMid meet">

<g transform="translate(0.000000,1024.000000) scale(0.100000,-0.100000)"
fill="#ffffffff" stroke="none">
<path d="M5120 8190 c-365 -51 -673 -193 -895 -415 -252 -251 -369 -540 -382
-936 -6 -201 8 -319 58 -472 170 -521 676 -836 1345 -837 299 0 631 70 888
189 l85 39 1 355 c0 384 3 405 56 474 27 35 89 72 139 83 28 5 30 9 33 58 l3
52 -535 0 -536 0 0 -55 0 -55 34 0 c63 0 191 -30 246 -57 59 -30 93 -71 110
-132 14 -50 13 -565 -1 -616 -18 -66 -80 -116 -185 -151 -83 -27 -99 -29 -249
-29 -192 0 -262 15 -410 85 -293 138 -480 413 -546 802 -18 105 -20 150 -16
308 5 209 21 311 72 468 123 381 377 623 720 687 133 26 322 17 430 -20 192
-64 300 -165 408 -380 34 -68 88 -217 102 -282 6 -32 8 -33 61 -33 48 0 54 2
54 21 0 70 -43 655 -48 661 -17 18 -178 89 -264 118 -181 59 -262 72 -498 75
-118 2 -244 0 -280 -5z"/>
<path d="M7305 8189 c-196 -20 -359 -99 -484 -235 -66 -73 -130 -191 -157
-294 -26 -97 -24 -300 4 -404 43 -155 138 -283 286 -380 44 -30 218 -122 386
-206 168 -84 329 -170 358 -193 258 -197 219 -590 -73 -733 -198 -97 -457 -49
-670 123 -112 91 -187 205 -254 389 l-29 79 -47 -2 c-26 -1 -48 -3 -50 -5 -2
-2 10 -136 25 -298 16 -162 30 -315 32 -339 3 -40 6 -46 32 -52 22 -6 35 -3
54 11 35 28 71 25 222 -21 183 -55 248 -69 359 -79 441 -37 824 192 943 565
28 86 35 268 14 365 -32 148 -119 290 -239 385 -98 78 -175 122 -407 230 -452
211 -582 325 -597 526 -19 255 163 439 435 439 143 0 270 -51 371 -149 95 -92
167 -212 211 -351 l18 -55 46 1 c25 0 48 3 51 5 3 3 -4 138 -15 300 -11 162
-20 302 -20 312 0 28 -58 23 -82 -8 -28 -35 -98 -34 -219 5 -189 60 -360 84
-504 69z"/>
<path d="M1660 8106 l0 -43 71 -7 c128 -12 197 -34 244 -80 27 -25 47 -56 54
-81 15 -53 15 -1954 1 -2006 -31 -113 -109 -157 -322 -184 l-48 -6 0 -50 0
-49 974 0 c920 0 975 1 980 18 15 54 137 704 132 709 -3 3 -25 8 -49 10 l-44
5 -18 -48 c-67 -182 -117 -276 -189 -352 -120 -127 -274 -169 -582 -160 -170
6 -219 17 -280 63 -68 52 -65 4 -62 1080 l3 970 27 45 c41 71 121 106 268 119
l75 6 3 43 3 42 -620 0 -621 0 0 -44z"/>
<path d="M1650 4890 l0 -30 3315 0 3315 0 0 30 0 30 -3315 0 -3315 0 0 -30z"/>
<path d="M6313 4303 l-163 -3 0 -28 c0 -25 5 -29 46 -40 75 -20 75 -21 72
-458 l-3 -376 -28 -24 c-16 -14 -41 -24 -58 -24 -26 0 -29 -3 -29 -30 l0 -30
216 0 215 0 -3 27 c-3 24 -9 29 -42 34 -71 11 -76 27 -76 218 l0 167 52 -6
c60 -8 73 -21 125 -125 87 -174 156 -271 214 -301 20 -10 63 -14 146 -14 l118
0 0 24 c0 19 -8 27 -37 35 -41 13 -89 63 -165 173 -45 66 -153 251 -153 263 0
2 21 16 48 29 58 30 116 88 137 138 20 50 19 134 -4 183 -51 111 -199 177
-386 173 -44 -2 -153 -4 -242 -5z m322 -82 c82 -37 121 -116 112 -228 -5 -70
-37 -135 -80 -167 -23 -17 -46 -22 -118 -24 l-89 -4 0 215 c0 163 3 217 13
220 30 13 124 5 162 -12z"/>
<path d="M1950 4271 c0 -25 4 -29 38 -35 22 -3 48 -16 63 -32 l24 -26 0 -388
c0 -438 3 -421 -79 -437 -35 -7 -41 -13 -44 -36 l-3 -27 384 0 384 0 17 118
c10 64 20 129 22 145 5 23 2 27 -19 27 -18 0 -28 -9 -43 -42 -58 -128 -114
-161 -277 -162 -159 -1 -147 -35 -147 403 0 216 4 371 11 393 11 41 48 68 94
68 21 0 25 5 25 30 l0 30 -225 0 -225 0 0 -29z"/>
<path d="M2940 4271 c0 -25 4 -29 38 -34 63 -11 75 -26 83 -108 4 -41 8 -213
8 -384 1 -363 -1 -372 -79 -391 -38 -9 -45 -15 -48 -37 l-3 -27 387 2 388 3
33 124 c18 69 31 126 30 127 -1 1 -13 5 -27 9 -22 5 -28 1 -47 -37 -57 -119
-110 -147 -274 -148 -103 0 -119 2 -143 21 l-26 20 0 180 0 179 90 0 c113 0
144 -14 171 -76 15 -34 25 -44 43 -44 22 0 23 5 30 92 3 50 6 120 6 155 0 59
-1 63 -23 63 -18 0 -28 -10 -43 -41 -25 -56 -59 -69 -179 -69 l-95 0 0 186 0
186 139 -4 c140 -3 140 -3 172 -33 17 -16 42 -54 55 -82 20 -45 28 -53 50 -53
l27 0 -7 77 c-3 42 -6 98 -6 125 l0 48 -375 0 -375 0 0 -29z"/>
<path d="M3980 4271 c0 -25 4 -29 38 -35 45 -7 69 -30 78 -73 7 -37 -34 -693
-47 -744 -11 -43 -28 -59 -72 -68 -25 -5 -33 -12 -35 -34 l-3 -27 171 0 171 0
-3 27 c-3 23 -9 29 -40 34 -21 3 -48 14 -59 25 -22 19 -22 21 -15 299 3 154 9
311 13 349 l6 69 29 -64 c32 -69 271 -610 308 -696 17 -41 27 -53 44 -53 18 0
29 17 65 105 23 58 105 243 181 411 l138 306 6 -53 c11 -96 26 -408 26 -531 0
-113 -1 -120 -25 -143 -13 -14 -35 -25 -49 -25 -40 0 -56 -11 -56 -36 l0 -24
231 0 230 0 -3 27 c-2 22 -9 27 -38 31 -45 5 -78 26 -91 60 -13 32 -32 499
-27 663 3 134 13 153 81 166 34 7 40 12 43 36 l3 27 -165 0 -164 0 -31 -67
c-26 -57 -220 -498 -276 -625 l-16 -37 -116 262 c-65 144 -137 308 -161 365
l-43 102 -164 0 -163 0 0 -29z"/>
<path d="M5498 4270 c3 -21 10 -30 24 -30 32 0 78 -29 88 -56 6 -15 10 -184
10 -395 0 -424 0 -422 -72 -436 -37 -7 -43 -12 -46 -36 l-3 -27 221 0 221 0
-3 27 c-3 24 -9 29 -42 34 -49 8 -73 36 -81 93 -9 60 -1 727 9 749 11 23 57
47 91 47 21 0 25 5 25 30 l0 30 -223 0 -224 0 5 -30z"/>
<path d="M7270 4271 c0 -25 4 -29 39 -35 26 -4 47 -15 60 -32 20 -26 21 -37
21 -413 -1 -288 -4 -390 -13 -402 -16 -21 -51 -39 -75 -39 -14 0 -21 -8 -24
-30 l-5 -30 386 2 385 3 32 127 31 127 -26 6 c-14 4 -27 2 -29 -3 -13 -40 -75
-122 -110 -147 -44 -30 -44 -30 -183 -30 -119 0 -141 2 -156 18 -16 15 -18 41
-21 197 l-4 180 97 0 c118 0 149 -13 176 -76 16 -35 25 -44 44 -44 l25 0 0
145 c0 80 0 148 0 153 0 4 -11 8 -25 10 -20 3 -25 -1 -25 -17 0 -11 -13 -35
-29 -53 l-29 -33 -116 -3 -116 -4 0 187 0 187 139 -4 c166 -4 180 -10 226
-105 26 -54 34 -62 59 -62 28 -1 28 0 22 37 -3 20 -6 76 -6 125 l0 87 -375 0
-375 0 0 -29z"/>
<path d="M3343 2813 c-11 -10 -28 -40 -38 -68 -10 -27 -49 -130 -87 -228 -56
-142 -75 -181 -94 -189 -13 -6 -24 -17 -24 -25 0 -10 20 -13 80 -13 65 0 80 3
80 15 0 9 -11 20 -25 25 -29 11 -30 21 -9 83 l16 47 89 0 90 0 14 -33 c29 -70
29 -86 1 -97 -14 -5 -26 -16 -26 -25 0 -12 18 -15 105 -15 112 0 131 10 79 40
-22 12 -43 56 -119 255 -51 132 -97 241 -103 243 -5 1 -18 -5 -29 -15z m57
-300 c0 -2 -31 -3 -69 -3 l-69 0 27 73 c15 39 31 81 35 92 6 16 15 0 42 -70
19 -49 34 -91 34 -92z"/>
<path d="M1122 2801 c-117 -41 -182 -131 -182 -255 1 -117 45 -185 150 -235
47 -22 68 -25 145 -24 50 1 109 7 133 15 l43 13 3 78 c4 77 16 107 42 107 8 0
14 7 14 15 0 13 -21 15 -125 15 -96 0 -125 -3 -125 -13 0 -7 19 -17 43 -23
l42 -9 0 -75 0 -75 -45 -3 c-25 -2 -61 1 -81 7 -47 14 -105 78 -119 133 -18
64 -9 157 21 214 59 117 228 127 284 16 15 -30 24 -38 35 -32 12 7 14 21 10
67 l-5 58 -50 12 c-76 17 -173 15 -233 -6z"/>
<path d="M2179 2807 c-184 -69 -239 -313 -103 -451 94 -95 286 -94 387 2 54
50 81 118 81 202 1 111 -46 190 -140 235 -50 24 -175 30 -225 12z m144 -41
c131 -54 157 -324 41 -415 -34 -27 -106 -28 -153 -3 -111 59 -134 298 -39 388
50 47 91 55 151 30z"/>
<path d="M4540 2797 c-30 -16 -51 -37 -68 -68 -48 -90 -7 -164 119 -214 38
-15 76 -36 84 -48 23 -33 19 -84 -10 -112 -52 -53 -149 -19 -175 60 -12 37
-17 40 -38 26 -10 -6 -12 -22 -7 -64 7 -56 8 -56 54 -74 144 -55 281 20 281
155 0 70 -47 117 -152 151 -83 27 -114 96 -63 146 48 49 133 21 151 -49 4 -17
13 -26 26 -26 16 0 19 5 14 23 -3 12 -6 39 -6 59 0 34 -3 38 -37 47 -63 18
-126 13 -173 -12z"/>
<path d="M5070 2811 c-120 -39 -189 -137 -190 -266 0 -161 100 -259 265 -259
113 0 197 51 247 147 26 52 35 152 18 211 -15 56 -69 120 -124 148 -45 23
-170 34 -216 19z m158 -60 c82 -58 110 -231 56 -339 -30 -61 -63 -82 -127 -82
-94 0 -157 80 -165 211 -9 154 55 246 165 235 22 -2 55 -13 71 -25z"/>
<path d="M6570 2799 c0 -9 -3 -37 -6 -63 -6 -38 -4 -46 9 -46 9 0 18 9 22 20
11 36 54 60 106 60 l49 0 0 -194 c0 -214 -6 -246 -45 -246 -18 0 -25 -5 -25
-20 0 -20 5 -21 118 -18 96 2 117 6 117 18 0 8 -9 16 -20 18 -44 9 -45 15 -45
234 l0 209 57 -3 c55 -3 59 -5 82 -40 27 -43 53 -51 47 -15 -3 12 -5 40 -5 62
l-1 40 -230 0 c-205 0 -230 -2 -230 -16z"/>
<path d="M7586 2806 c-54 -20 -106 -65 -140 -119 -34 -56 -46 -160 -26 -223
38 -115 130 -179 255 -178 118 2 196 48 245 147 33 66 40 146 19 220 -13 48
-70 112 -123 139 -53 27 -174 35 -230 14z m173 -53 c14 -10 38 -43 54 -73 55
-108 26 -294 -52 -334 -76 -40 -165 -8 -211 74 -22 39 -25 57 -25 140 0 83 3
101 25 140 32 57 79 83 139 77 24 -3 55 -13 70 -24z"/>
<path d="M8760 2798 c-59 -30 -90 -77 -90 -138 0 -65 26 -95 126 -141 45 -21
89 -48 98 -61 40 -56 0 -128 -71 -128 -21 1 -48 6 -61 14 -28 15 -62 64 -62
89 0 12 -6 17 -17 15 -15 -3 -18 -14 -18 -61 1 -66 4 -69 82 -93 150 -44 288
74 244 209 -16 47 -36 63 -122 98 -94 38 -109 52 -109 100 0 94 131 109 168
19 11 -26 23 -40 36 -40 12 0 16 5 12 16 -3 9 -6 35 -6 59 0 42 -1 44 -37 54
-62 17 -125 13 -173 -11z"/>
<path d="M1520 2798 c0 -7 15 -20 33 -28 l32 -15 3 -199 c3 -208 0 -222 -41
-228 -12 -2 -22 -10 -22 -18 0 -13 28 -15 194 -15 l194 0 13 55 c7 30 13 63
14 73 0 28 -27 19 -40 -14 -19 -44 -64 -69 -127 -69 -88 0 -83 -13 -83 209 0
108 4 201 8 207 4 6 17 14 30 18 12 4 22 14 22 22 0 11 -22 14 -115 14 -85 0
-115 -3 -115 -12z"/>
<path d="M2620 2797 c0 -7 13 -17 28 -23 38 -14 42 -38 42 -224 0 -186 -4
-206 -41 -219 -16 -5 -29 -17 -29 -26 0 -15 16 -16 148 -13 131 3 152 6 195
27 79 38 108 112 72 181 -15 30 -61 60 -90 60 -21 0 -19 17 3 24 66 21 90 119
42 171 -43 47 -77 55 -230 55 -107 0 -140 -3 -140 -13z m261 -46 c24 -25 29
-37 29 -80 0 -67 -22 -91 -85 -91 l-45 0 0 88 c0 55 4 92 12 100 21 21 58 13
89 -17z m30 -240 c70 -71 7 -200 -86 -177 -34 9 -45 41 -45 132 l0 74 51 0
c43 0 55 -5 80 -29z"/>
<path d="M3700 2797 c0 -7 14 -18 30 -24 l30 -11 0 -211 0 -211 -30 -6 c-21
-5 -30 -12 -30 -25 0 -19 9 -19 192 -17 l192 3 13 50 c17 67 16 95 -2 95 -8 0
-15 -7 -15 -15 0 -8 -13 -29 -29 -47 -25 -29 -35 -32 -95 -36 -44 -3 -71 0
-81 8 -12 10 -15 46 -15 201 0 176 1 190 20 209 11 11 27 20 35 20 8 0 15 7
15 15 0 12 -19 15 -115 15 -87 0 -115 -3 -115 -13z"/>
<path d="M5500 2796 c0 -7 14 -19 30 -26 l30 -12 0 -202 c0 -209 -3 -226 -42
-226 -11 0 -18 -7 -18 -20 0 -19 7 -20 193 -20 l193 0 12 58 c16 76 15 92 -3
92 -8 0 -15 -7 -15 -15 0 -8 -13 -29 -29 -47 -25 -29 -35 -32 -95 -36 -44 -3
-71 0 -81 8 -12 10 -15 46 -15 197 0 101 4 193 10 203 5 10 21 21 35 24 14 4
25 13 25 21 0 12 -20 15 -115 15 -91 0 -115 -3 -115 -14z"/>
<path d="M5950 2795 c0 -8 7 -15 15 -15 8 0 24 -9 35 -20 18 -18 20 -33 20
-178 0 -144 2 -162 23 -202 27 -55 71 -85 136 -94 102 -13 190 21 224 88 22
41 36 161 37 309 0 78 0 79 30 90 17 6 30 17 30 24 0 10 -24 13 -95 13 -74 0
-95 -3 -95 -14 0 -8 12 -17 27 -21 15 -3 31 -12 35 -18 11 -18 9 -286 -2 -328
-15 -52 -50 -81 -107 -86 -58 -5 -89 10 -120 56 -22 32 -23 44 -23 198 l0 165
30 11 c17 6 30 17 30 24 0 10 -28 13 -115 13 -96 0 -115 -3 -115 -15z"/>
<path d="M7100 2798 c0 -7 13 -20 29 -29 22 -13 29 -26 34 -64 9 -61 9 -258 1
-319 -6 -42 -10 -48 -35 -53 -20 -4 -29 -12 -29 -24 0 -18 9 -19 116 -19 103
0 115 2 112 17 -2 9 -14 20 -28 23 -19 5 -26 14 -32 45 -10 59 -9 340 1 368 5
14 21 27 35 31 14 3 26 13 26 21 0 12 -20 15 -115 15 -85 0 -115 -3 -115 -12z"/>
<path d="M8030 2796 c0 -8 14 -19 30 -25 17 -5 31 -18 32 -28 4 -60 -6 -381
-13 -395 -5 -9 -19 -18 -31 -20 -13 -2 -24 -11 -26 -20 -3 -16 7 -18 97 -18
82 0 101 3 101 15 0 8 -14 18 -32 23 -29 7 -34 13 -41 55 -4 26 -6 106 -5 178
l3 130 132 -163 c144 -177 218 -256 230 -244 5 4 10 113 13 242 5 243 7 253
48 254 6 0 12 7 12 15 0 12 -17 15 -95 15 -74 0 -95 -3 -95 -14 0 -7 13 -16
29 -19 46 -9 52 -32 49 -184 l-3 -137 -148 177 -148 177 -70 0 c-52 0 -69 -3
-69 -14z"/>
</g>
</svg>
